<?xml version="1.0" encoding="UTF-8" standalone="no"?>
<!-- Created with Inkscape (http://www.inkscape.org/) -->

<svg
   xmlns:dc="http://purl.org/dc/elements/1.1/"
   xmlns:cc="http://creativecommons.org/ns#"
   xmlns:rdf="http://www.w3.org/1999/02/22-rdf-syntax-ns#"
   xmlns:svg="http://www.w3.org/2000/svg"
   xmlns="http://www.w3.org/2000/svg"
   xmlns:sodipodi="http://sodipodi.sourceforge.net/DTD/sodipodi-0.dtd"
   xmlns:inkscape="http://www.inkscape.org/namespaces/inkscape"
   width="101.34494mm"
   height="21.63093mm"
   viewBox="0 0 101.34494 21.63093"
   version="1.1"
   id="svg3999"
   inkscape:version="0.92.5 (2060ec1f9f, 2020-04-08)">
  <defs
     id="defs3993" />
  <sodipodi:namedview
     id="base"
     pagecolor="#ffffff"
     bordercolor="#666666"
     borderopacity="1.0"
     inkscape:pageopacity="0.0"
     inkscape:pageshadow="2"
     inkscape:zoom="2.8"
     inkscape:cx="160.07936"
     inkscape:cy="10.935305"
     inkscape:document-units="mm"
     inkscape:current-layer="layer1"
     showgrid="false"
     fit-margin-top="0"
     fit-margin-left="0"
     fit-margin-right="0"
     fit-margin-bottom="0"
     inkscape:window-width="1920"
     inkscape:window-height="1003"
     inkscape:window-x="0"
     inkscape:window-y="0"
     inkscape:window-maximized="1" />
  <metadata
     id="metadata3996">
    <rdf:RDF>
      <cc:Work
         rdf:about="">
        <dc:format>image/svg+xml</dc:format>
        <dc:type
           rdf:resource="http://purl.org/dc/dcmitype/StillImage" />
        <dc:title></dc:title>
      </cc:Work>
    </rdf:RDF>
  </metadata>
  <g
     inkscape:label="Layer 1"
     inkscape:groupmode="layer"
     id="layer1"
     transform="translate(-33.61622,-136.12799)">
    <g
       id="g4029">
      <path
         id="path76"
         style="fill:#b32428;fill-opacity:1;fill-rule:evenodd;stroke:#b32428;stroke-width:0.07619999;stroke-linecap:butt;stroke-linejoin:miter;stroke-miterlimit:22.9260006;stroke-dasharray:none;stroke-opacity:1"
         d="m 33.65432,136.16609 h 21.551899 v 21.55473 H 33.65432 Z"
         inkscape:connector-curvature="0" />
      <path
         id="path80"
         style="fill:#fbc589;fill-opacity:1;fill-rule:evenodd;stroke:none;stroke-width:0.35277775"
         d="m 51.624891,139.73003 -13.339586,-1.40829 v 0.0258 c 0.60325,0.25365 0.777523,0.98002 0.318559,1.44251 h 13.021027 z m -13.021027,15.83549 h -0.05997 l -1.309159,-16.20556 h 0.03069 c 0.226131,0.63077 0.832556,0.78952 1.338439,0.43004 z m 7.267222,-13.31525 c -0.0575,0.0279 -0.112889,0.0744 -0.156986,0.12312 -0.06385,0.0776 -0.270581,0.0392 -0.388409,0.0744 -0.07197,0.0219 -0.10548,0.0515 -0.110419,0.0381 0.03563,-0.073 0.06068,-0.14641 0.12065,-0.2032 0.130528,-0.12383 0.52458,-0.21096 0.535164,-0.0325 m 5.753805,-0.97966 h -6.659033 v 0.92039 c 0.157692,-0.084 0.285044,-0.15769 0.454378,-0.20566 0.112536,-0.0321 0.234244,-0.0667 0.353483,-0.0547 0.173919,0.018 0.238125,0.13477 0.219428,0.25647 0.153458,-0.0825 0.443089,-0.12805 0.582083,-0.001 0.13335,0.12242 0.160514,0.32174 0.116417,0.48754 -0.155222,-0.16616 -0.354895,-0.20814 -0.565856,-0.10513 -0.158397,0.0773 -0.289983,0.21344 -0.36195,0.37324 0.06809,0.078 0.287867,0.0152 0.363009,-0.0236 0.08325,-0.043 0.155927,-0.11218 0.249061,-0.21343 -0.01199,0.15028 -0.02963,0.28998 -0.08431,0.36406 -0.103717,0.14112 -0.206728,0.16969 -0.383117,0.23107 -0.13723,0.0476 -0.276225,0.1143 -0.41275,0.25259 -0.117828,0.15664 -0.147461,0.42792 -0.111478,0.65793 0.03986,0.2533 0.13335,0.52035 0.211667,0.78246 0.07832,0.26247 0.142522,0.52106 0.123825,0.75671 0.403931,0.0656 1.053042,-0.38452 1.280936,-0.56867 0.252236,-0.20356 0.511528,-0.44098 0.636764,-0.67134 0.101953,-0.18768 0.131939,-0.57009 -0.05997,-0.86854 -0.362656,-0.5648 -0.164395,-1.47602 0.603955,-1.70815 0.471664,-0.13758 1.119717,-0.005 1.410759,0.52035 0.283633,0.51188 0.34925,1.08867 0.34043,1.69333 -0.01305,0.92604 -0.05009,1.50178 0.121709,2.19252 0.08467,0.33866 0.242711,0.65122 0.493536,0.93838 -0.19685,0.23319 -0.525992,0.073 -0.778934,-0.14322 -0.37465,-0.31962 -0.694266,-1.04176 -0.899936,-2.20204 l -0.03986,0.14322 c -0.0092,0.69921 0.08185,1.23332 0.232834,1.85773 0.153105,0.63148 0.375708,0.99907 0.916516,1.41288 -0.297039,0.26846 -0.597252,0.1524 -0.859366,-0.0469 -0.521053,-0.39652 -0.744714,-0.84737 -0.958145,-1.75789 l -0.03916,0.0511 c -0.04551,0.5341 0.01093,1.06362 0.182033,1.5434 0.164042,0.45967 0.481189,0.89923 0.889706,1.23331 -0.277284,0.25047 -0.58032,0.0847 -0.83185,-0.0977 -0.355953,-0.25788 -0.886531,-0.75636 -1.05657,-1.73284 l -0.0448,0.0381 c -0.01764,0.55915 0.03422,1.06186 0.154869,1.49401 0.123119,0.44132 0.497417,0.96626 0.873478,1.21849 -0.312914,0.26529 -0.595842,0.10266 -0.824795,-0.0734 -0.608894,-0.46848 -0.991658,-1.12994 -1.131711,-2.00907 l -0.05468,0.0275 c -0.06526,0.95462 -0.06103,2.00167 0.794102,2.61303 l -0.339372,0.21378 0.198614,0.33726 c 0.08714,0.14852 0.87877,-0.25682 1.200503,0 0.129469,0.10336 0.213078,0.26952 0.119592,0.48013 l -0.0194,-0.008 c -0.0085,-0.14887 -0.08361,-0.22684 -0.182386,-0.26811 -0.143228,-0.0593 -0.362303,-0.0434 -0.525992,0.14428 -0.317853,0.21485 -0.541514,0.0621 -0.705555,0.27729 -0.09737,0.127 -0.09525,0.23883 -0.05433,0.36442 l -0.01623,0.0102 c -0.437452,-0.22897 -0.02858,-0.65265 -0.109368,-0.79482 l -0.213078,-0.37289 -0.342547,0.20708 c -0.0314,-0.25012 -0.42157,-1.58185 -0.657225,-1.67181 -0.06103,0.0875 -0.05786,0.32067 -0.06703,0.48119 -0.0127,0.22437 0.09031,0.38805 0.06809,0.70167 -0.0099,0.13653 -0.07796,0.32456 -0.187325,0.51188 0.107597,0.0702 0.15628,0.18063 0.153811,0.30868 -0.0032,0.14359 -0.06773,0.3108 -0.112183,0.44662 -0.0575,0.17498 -0.107598,0.30762 -0.04163,0.30762 0.187678,-0.0977 0.363714,-0.11535 0.515055,-0.0713 0.219428,0.0628 0.358423,0.272 0.556684,0.37395 0.2286,0.11818 0.423686,0.0974 0.685094,0.1972 -0.356658,0.13617 -0.408164,0.50165 -0.893233,0.42651 -0.291747,-0.0455 -0.729545,-0.59725 -0.80892,-0.55139 -0.05574,0.16333 -0.01976,0.35419 0.01094,0.61136 0.01552,0.12806 0.03069,0.27376 0.03175,0.44027 0.0018,0.16651 -0.01023,0.35525 -0.04692,0.56973 -0.04904,0.28646 -0.1524,0.65335 -0.319264,1.04564 h 0.0042 c 6.547937,-2.18899 6.596268,-11.35698 6.650948,-14.29491 m -2.980619,1.63759 c -0.134409,0 -0.244475,-0.11606 -0.244475,-0.25894 0,-0.14217 0.110066,-0.25858 0.244475,-0.25858 0.135114,0 0.24518,0.11641 0.24518,0.25858 0,0.14288 -0.110066,0.25894 -0.24518,0.25894 m -0.449086,0.45473 c 0.134408,0 0.244827,-0.11606 0.244827,-0.25894 0,-0.14217 -0.110419,-0.25858 -0.244827,-0.25858 -0.134761,0 -0.244828,0.11641 -0.244828,0.25858 0,0.14288 0.110067,0.25894 0.244828,0.25894 m 0.829733,0.0744 c 0.134761,0 0.244828,-0.11607 0.244828,-0.25894 0,-0.14252 -0.110067,-0.25859 -0.244828,-0.25859 -0.134408,0 -0.244475,0.11607 -0.244475,0.25859 0,0.14287 0.110067,0.25894 0.244475,0.25894 m -0.391936,-0.39194 c -0.04868,2.45357 -1.230489,4.36069 -3.665714,4.5145 v -0.68721 c 1.971322,-0.0632 3.445228,-2.00837 3.625497,-3.82729 z m -4.572353,-0.79551 c 0.0575,0.0282 0.113242,0.0744 0.156986,0.12347 0.06421,0.0773 0.270934,0.0392 0.388409,0.0744 0.07197,0.0219 0.10548,0.0515 0.110772,0.0381 -0.03598,-0.0734 -0.06103,-0.14641 -0.121003,-0.2032 -0.130175,-0.12383 -0.524581,-0.21096 -0.535164,-0.0328 m 0.9017,13.3156 h -0.0039 c -0.166511,-0.39159 -0.267053,-0.75989 -0.315736,-1.04564 -0.03634,-0.21449 -0.04833,-0.40322 -0.04692,-0.56973 0.0011,-0.16687 0.01623,-0.31221 0.03175,-0.44027 0.03069,-0.25718 0.06703,-0.44803 0.01129,-0.61136 -0.07973,-0.0459 -0.517525,0.50588 -0.809272,0.55103 -0.484717,0.0755 -0.536575,-0.28998 -0.893233,-0.42615 0.261761,-0.0998 0.456494,-0.079 0.685447,-0.1972 0.197908,-0.10196 0.337255,-0.31115 0.55633,-0.37395 0.151342,-0.0441 0.327378,-0.0265 0.515056,0.0713 0.06597,0 0.01587,-0.13299 -0.04127,-0.30797 -0.0448,-0.13547 -0.109361,-0.30269 -0.112184,-0.44627 -0.0028,-0.12841 0.04621,-0.23847 0.153459,-0.30868 -0.109009,-0.18767 -0.177448,-0.37535 -0.186973,-0.51188 -0.02258,-0.31362 0.08043,-0.47766 0.06773,-0.70167 -0.0088,-0.16087 -0.0056,-0.3937 -0.06703,-0.48119 -0.235656,0.09 -0.625828,1.42134 -0.657225,1.67181 l -0.342174,-0.20743 -0.213431,0.37324 c -0.08079,0.14182 0.328436,0.56585 -0.109361,0.79481 l -0.01623,-0.0102 c 0.04128,-0.12559 0.04339,-0.23742 -0.05397,-0.36477 -0.164042,-0.21485 -0.388056,-0.0621 -0.705908,-0.27693 -0.163689,-0.18768 -0.382411,-0.20356 -0.525639,-0.14429 -0.09913,0.0413 -0.17392,0.11924 -0.182386,0.26811 l -0.0194,0.008 c -0.09384,-0.21061 -0.01023,-0.37712 0.119238,-0.48048 0.322087,-0.25647 1.113367,0.14887 1.200856,0 l 0.198261,-0.33725 -0.339372,-0.21378 c 0.855133,-0.61101 0.859367,-1.65805 0.794103,-2.61267 l -0.05468,-0.0275 c -0.1397,0.87912 -0.522817,1.54058 -1.131358,2.00872 -0.228953,0.17638 -0.511881,0.33901 -0.824795,0.0737 0.375709,-0.25224 0.750006,-0.77717 0.873125,-1.2185 0.12065,-0.4325 0.172861,-0.93486 0.15487,-1.49401 l -0.0448,-0.0381 c -0.169686,0.97649 -0.700616,1.47496 -1.056216,1.73285 -0.251884,0.18238 -0.554567,0.34819 -0.832203,0.0977 0.408869,-0.33408 0.726017,-0.77364 0.889705,-1.23331 0.171098,-0.47977 0.227542,-1.00965 0.182034,-1.54375 l -0.03916,-0.0508 c -0.213078,0.91052 -0.437092,1.36137 -0.958145,1.75789 -0.261761,0.19932 -0.562328,0.31538 -0.859367,0.0469 0.541162,-0.41381 0.763764,-0.7814 0.916517,-1.41288 0.150989,-0.62441 0.242006,-1.15852 0.233186,-1.85772 l -0.03986,-0.14358 c -0.205669,1.16063 -0.525639,1.88277 -0.900289,2.20239 -0.252941,0.2159 -0.582083,0.37641 -0.77858,0.14323 0.250472,-0.28717 0.408869,-0.59973 0.493183,-0.93839 0.172156,-0.69074 0.135114,-1.26648 0.121709,-2.19252 -0.0085,-0.60466 0.05715,-1.18145 0.34043,-1.69333 0.291042,-0.52599 0.939447,-0.65793 1.411111,-0.52035 0.76835,0.23213 0.966258,1.14335 0.603603,1.70815 -0.191911,0.29845 -0.161572,0.68086 -0.05962,0.86854 0.125236,0.23036 0.384528,0.46778 0.636411,0.67134 0.227894,0.18415 0.877359,0.63429 1.280936,0.56867 -0.01834,-0.23565 0.04551,-0.49424 0.123825,-0.7567 0.07867,-0.26212 0.171803,-0.52917 0.211667,-0.78282 0.03634,-0.22966 0.0063,-0.50129 -0.111478,-0.65758 -0.136172,-0.13828 -0.275519,-0.20496 -0.41275,-0.25258 -0.176036,-0.0617 -0.2794,-0.09 -0.383116,-0.23107 -0.05433,-0.0741 -0.07232,-0.21379 -0.08431,-0.36407 0.09313,0.10125 0.165805,0.17039 0.249061,0.21343 0.07514,0.0388 0.294922,0.1016 0.363008,0.0236 -0.07197,-0.15981 -0.203553,-0.29599 -0.361597,-0.37324 -0.210961,-0.10337 -0.410633,-0.061 -0.566208,0.10512 -0.0441,-0.16615 -0.01693,-0.36512 0.116769,-0.48753 0.138995,-0.127 0.428272,-0.0815 0.582083,0.001 -0.01905,-0.12171 0.04516,-0.23884 0.219075,-0.25647 0.119592,-0.012 0.2413,0.0226 0.353836,0.0547 0.168981,0.0476 0.296686,0.12171 0.454025,0.20567 z m -3.674886,-12.65732 c 0.134761,0 0.244475,-0.11641 0.244475,-0.25894 0,-0.14217 -0.109714,-0.25894 -0.244475,-0.25894 -0.135114,0 -0.24518,0.11677 -0.24518,0.25894 0,0.14253 0.110066,0.25894 0.24518,0.25894 m 0.449439,0.45473 c -0.134761,0 -0.244828,-0.11606 -0.244828,-0.25894 0,-0.14217 0.110067,-0.25858 0.244828,-0.25858 0.134761,0 0.244828,0.11641 0.244828,0.25858 0,0.14288 -0.110067,0.25894 -0.244828,0.25894 m -0.830086,0.0744 c -0.134761,0 -0.244828,-0.11607 -0.244828,-0.25894 0,-0.14252 0.110067,-0.25859 0.244828,-0.25859 0.134761,0 0.244828,0.11607 0.244828,0.25859 0,0.14287 -0.110067,0.25894 -0.244828,0.25894 m 0.391936,-0.39229 c 0.04904,2.45357 1.230489,4.36104 3.665714,4.5145 l 3.44e-4,-0.68686 c -1.971313,-0.0632 -3.445572,-2.00837 -3.625488,-3.82764 z"
         inkscape:connector-curvature="0" />
      <path
         id="path82"
         style="fill:#231f20;fill-opacity:1;fill-rule:evenodd;stroke:none;stroke-width:0.35277775"
         d="m 57.364514,157.50527 h 77.596646 v 0.21555 H 57.364514 Z"
         inkscape:connector-curvature="0" />
      <path
         id="path86"
         style="fill:#231f20;fill-opacity:1;fill-rule:evenodd;stroke:none;stroke-width:0.35277775"
         d="m 133.96509,154.70724 c 0,0.10478 -0.007,0.19474 -0.127,0.31433 -0.19473,0.19438 -0.49424,0.32208 -0.73377,0.32208 -0.40429,0 -0.65123,-0.2547 -0.65123,-0.69638 0,-0.57644 0.45684,-0.7112 1.512,-0.88335 z m 0.99554,0.7486 -0.03,-0.14217 c -0.0448,0.007 -0.0896,0.007 -0.127,0.007 -0.27692,0 -0.32173,-0.13512 -0.32173,-0.48683 v -0.20215 l 0.03,-1.24989 v -0.09 c 0,-0.83079 -0.32209,-1.22766 -1.15323,-1.22766 -0.4565,0 -0.86819,0.14217 -1.18251,0.41204 l -0.0148,0.38171 h 0.06 c 0.22401,-0.34467 0.53869,-0.51682 0.94262,-0.51682 0.59161,0 0.81633,0.31467 0.81633,0.95849 v 0.15699 c -0.18732,0.16475 -0.629,0.19473 -1.27247,0.32949 -0.57644,0.12736 -0.85337,0.43392 -0.85337,0.9578 0,0.56938 0.35913,0.89958 1.01035,0.89958 0.4191,0 0.786,-0.17321 1.09291,-0.49495 0.0448,0.29175 0.14958,0.42651 0.40429,0.42651 0.20955,0 0.39687,-0.06 0.59866,-0.11959 m -3.37573,0.121 c -0.65899,-0.77998 -1.23543,-1.44744 -1.72191,-2.01611 l 0.65864,-0.62301 c 0.39652,-0.37394 0.70344,-0.65087 0.95109,-0.81562 -0.10513,0.0148 -0.21767,0.0222 -0.32244,0.0222 -0.10442,0 -0.2092,-0.007 -0.32173,-0.0222 -0.80081,1.01953 -1.39242,1.49084 -1.52718,1.49084 -0.0822,0 -0.11994,-0.0448 -0.11994,-0.12736 v -0.24694 c 0,-0.9144 0.008,-1.95898 0.0377,-3.14396 -0.0974,0.0148 -0.20214,0.03 -0.30692,0.03 -0.0974,0 -0.20214,-0.0152 -0.30692,-0.03 0.03,0.92428 0.0374,1.8341 0.0374,2.73086 0,0.70485 -0.007,1.61854 -0.0374,2.75131 0.10478,-0.024 0.20955,-0.0388 0.30692,-0.0388 0.10478,0 0.20955,0.0148 0.30692,0.0388 -0.0377,-0.57009 -0.0377,-1.01177 -0.0377,-1.30492 v -0.4117 c 0,-0.0677 0,-0.0977 0.0677,-0.0977 0.11218,0 0.64382,0.59161 1.5494,1.81434 0.11959,-0.024 0.24729,-0.0314 0.37429,-0.0314 0.13477,0 0.27693,0.007 0.41205,0.0314 m -3.72075,-1.08656 c 0,-0.45684 -0.22472,-0.69638 -0.70344,-0.83855 l -0.50165,-0.14993 c -0.37429,-0.11183 -0.55386,-0.27658 -0.55386,-0.61348 0,-0.36689 0.254,-0.61383 0.62089,-0.61383 0.29245,0 0.56938,0.16439 0.84631,0.48612 0.03,-0.15698 0.0822,-0.30691 0.15699,-0.4639 -0.24694,-0.14993 -0.56162,-0.23953 -0.91334,-0.23953 -0.68862,0 -1.12254,0.4265 -1.12254,1.0107 0,0.51612 0.23918,0.78599 0.7934,0.94298 l 0.3369,0.0974 c 0.38911,0.10513 0.57644,0.25435 0.57644,0.59902 0,0.41169 -0.27728,0.66639 -0.7112,0.66639 -0.35207,0 -0.65158,-0.18767 -0.89077,-0.56162 -0.0448,0.18697 -0.10477,0.37395 -0.17991,0.56868 0.2547,0.17215 0.58385,0.26317 0.95073,0.26317 0.77858,0 1.29505,-0.50271 1.29505,-1.15358 m -2.43275,-2.3682 c -0.0674,0.007 -0.14253,0.0148 -0.21732,0.0148 -0.0748,0 -0.14216,-0.007 -0.22436,-0.0148 -0.4565,1.34126 -0.80857,2.23203 -1.01812,2.66735 -0.23213,-0.47272 -0.56162,-1.36384 -0.91334,-2.66735 -0.0748,0.0148 -0.14993,0.0222 -0.21696,0.0222 -0.0677,0 -0.14252,-0.007 -0.21696,-0.0222 -0.27728,0.97437 -0.59161,1.86514 -0.95849,2.67476 -0.48648,-1.2513 -0.78599,-2.14312 -0.91335,-2.67476 -0.11218,0.0222 -0.22436,0.03 -0.32949,0.03 -0.11218,0 -0.21696,-0.008 -0.32173,-0.03 0.70379,1.70815 1.1303,2.86209 1.27282,3.45475 0.0748,-0.0162 0.13441,-0.0162 0.2092,-0.0162 0.0677,0 0.14252,0 0.2099,0.0162 0.14958,-0.63006 0.44944,-1.51482 0.9204,-2.64618 0.56162,1.49824 0.85372,2.37525 0.89852,2.64618 0.0748,-0.0162 0.14252,-0.024 0.20955,-0.024 0.0751,0 0.14993,0.008 0.22472,0.024 0.17992,-0.68262 0.66604,-1.82174 1.38501,-3.45475 m -6.54262,2.58516 c 0,0.10477 -0.008,0.19473 -0.12771,0.31432 -0.19402,0.19438 -0.49389,0.32209 -0.73342,0.32209 -0.40393,0 -0.65123,-0.25471 -0.65123,-0.69639 0,-0.57643 0.4565,-0.7112 1.51236,-0.88335 z m 0.99554,0.74859 -0.03,-0.14217 c -0.0452,0.007 -0.09,0.007 -0.12735,0.007 -0.27729,0 -0.32174,-0.13511 -0.32174,-0.48683 v -0.20214 l 0.0296,-1.24989 v -0.09 c 0,-0.8308 -0.32173,-1.22767 -1.15252,-1.22767 -0.45685,0 -0.86854,0.14217 -1.18322,0.41204 l -0.0148,0.38171 h 0.06 c 0.22472,-0.34466 0.53905,-0.51682 0.94333,-0.51682 0.59125,0 0.81598,0.31468 0.81598,0.9585 v 0.15698 c -0.18733,0.16475 -0.62901,0.19474 -1.27283,0.3295 -0.57644,0.12735 -0.85337,0.43391 -0.85337,0.95779 0,0.56938 0.35948,0.89958 1.01071,0.89958 0.41945,0 0.78599,-0.17321 1.09291,-0.49494 0.0448,0.29174 0.14993,0.4265 0.40463,0.4265 0.2092,0 0.39652,-0.06 0.59867,-0.11959 m -3.45087,-3.49215 v -0.38805 c -0.10513,0.0896 -0.27694,0.23848 -0.53164,0.41804 v -0.0825 c 0,-0.69497 0.0148,-1.35255 0.037,-1.81645 -0.097,0.007 -0.2092,0.0148 -0.31397,0.0148 -0.09,0 -0.19474,-0.007 -0.2921,-0.0148 0.03,0.60501 0.0374,1.29363 0.0374,2.07116 v 0.19473 c -0.21696,0.14922 -0.28434,0.19438 -0.50871,0.32914 v 0.3803 c 0.31397,-0.254 0.47131,-0.38771 0.5013,-0.40252 v 1.0615 c 0,0.80751 -0.0148,1.41994 -0.03,1.84785 0.0974,-0.0162 0.19438,-0.024 0.2921,-0.024 0.10477,0 0.20919,0.008 0.31397,0.024 -0.0222,-0.46531 -0.037,-1.51976 -0.037,-3.27624 0.22472,-0.14252 0.28469,-0.18733 0.53164,-0.33691 m -1.80446,0.38524 c -0.38171,-0.19438 -0.77858,-0.29175 -1.19027,-0.29175 -1.09291,0 -1.81893,0.7112 -1.81893,1.7967 0,1.0929 0.69639,1.79775 1.7145,1.79775 0.51612,0 0.92075,-0.11359 1.24989,-0.36794 -0.007,-0.0448 -0.007,-0.0977 -0.007,-0.14993 0,-0.0748 0.007,-0.16475 0.0148,-0.26953 -0.35171,0.35948 -0.69638,0.53164 -1.10772,0.53164 -0.756,0 -1.27247,-0.58385 -1.27247,-1.5494 0,-0.99589 0.4565,-1.55716 1.22732,-1.55716 0.45649,0 0.78634,0.22437 0.99589,0.68862 0.0448,-0.23213 0.11218,-0.44909 0.19438,-0.629 m -4.1469,1.54234 c 0,1.00295 -0.38947,1.52718 -1.10808,1.52718 -0.72637,0 -1.11548,-0.5394 -1.11548,-1.57974 0,-1.03293 0.38911,-1.56422 1.10807,-1.56422 0.72602,0 1.11549,0.55386 1.11549,1.61678 m 0.62865,-0.0448 c 0,-1.06327 -0.71861,-1.78929 -1.73673,-1.78929 -0.98813,0 -1.73672,0.72602 -1.73672,1.78929 0,1.07033 0.72637,1.79741 1.73672,1.79741 0.99554,0 1.73673,-0.70485 1.73673,-1.79741 m -3.81741,-1.72191 c -0.11995,-0.0226 -0.2099,-0.0378 -0.27729,-0.0378 -0.35912,0 -0.65122,0.2847 -0.91298,0.83856 0,-0.29916 0.0145,-0.56868 0.037,-0.80081 -0.097,0.0222 -0.20215,0.03 -0.30692,0.03 -0.0974,0 -0.20179,-0.008 -0.31433,-0.03 0.03,0.31433 0.0374,0.66605 0.0374,1.05551 0,1.07033 -0.0148,1.87149 -0.0374,2.3876 0.0974,-0.0148 0.18733,-0.0222 0.27693,-0.0222 0.10478,0 0.21732,0.007 0.32174,0.0314 -0.0222,-0.3309 -0.037,-0.82479 -0.037,-1.47602 0,-0.99554 0.20955,-1.48237 0.76341,-1.48237 0.11959,0 0.23178,0.03 0.35172,0.0974 l 0.06,-0.0374 c 0,-0.20955 0.007,-0.40393 0.0377,-0.55386 m -2.044,-1.54976 c -0.0825,0.0226 -0.16474,0.03 -0.24729,0.03 -0.0822,0 -0.15699,-0.007 -0.23178,-0.03 -0.36689,1.43017 -0.79375,2.8448 -1.27247,4.22946 -0.51646,-1.42205 -0.98107,-2.83704 -1.40758,-4.22946 -0.0822,0.0226 -0.16439,0.03 -0.23954,0.03 -0.0822,0 -0.15734,-0.007 -0.23953,-0.03 -0.41169,1.51201 -0.8756,2.94217 -1.37019,4.30425 -0.478719,-1.48202 -0.898174,-2.91924 -1.272469,-4.30425 -0.112184,0.0226 -0.231775,0.03 -0.344313,0.03 -0.119944,0 -0.239184,-0.007 -0.351719,-0.03 0.569032,1.78189 1.092907,3.44382 1.564569,5.00204 0.08996,-0.024 0.172152,-0.0388 0.254352,-0.0388 0.09,0 0.17251,0.0148 0.25471,0.0388 0.21695,-0.60007 0.66639,-1.96285 1.36983,-4.08869 0.50165,1.39241 0.95815,2.75484 1.34726,4.0961 0.09,-0.0314 0.17251,-0.0388 0.26211,-0.0388 0.09,0 0.17251,0.007 0.25471,0.0314 0.54645,-1.63336 1.09291,-3.2953 1.66934,-5.00204 m -10.255939,4.13321 c 0,0.10478 -0.0071,0.19474 -0.127,0.31433 -0.194734,0.19438 -0.49389,0.32208 -0.733425,0.32208 -0.404638,0 -0.651582,-0.2547 -0.651582,-0.69638 0,-0.57644 0.456848,-0.7112 1.512007,-0.88335 z m 0.995891,0.7486 -0.02963,-0.14217 c -0.04516,0.007 -0.08996,0.007 -0.127707,0.007 -0.276931,0 -0.321733,-0.13512 -0.321733,-0.48683 v -0.20215 l 0.02998,-1.24989 v -0.09 c 0,-0.83079 -0.322085,-1.22766 -1.152877,-1.22766 -0.456493,0 -0.868185,0.14217 -1.182864,0.41204 l -0.01482,0.38171 h 0.05997 c 0.224719,-0.34467 0.538692,-0.51682 0.942975,-0.51682 0.591608,0 0.815975,0.31467 0.815975,0.95849 v 0.15699 c -0.186973,0.16475 -0.629002,0.19473 -1.272468,0.32949 -0.57644,0.12736 -0.853372,0.43392 -0.853372,0.9578 0,0.56938 0.35913,0.89958 1.010357,0.89958 0.419452,0 0.786341,-0.17321 1.093258,-0.49495 0.0448,0.29175 0.149577,0.42651 0.403932,0.42651 0.20955,0 0.396875,-0.06 0.599016,-0.11959 m -3.376083,0.121 c -0.65899,-0.77999 -1.23543,-1.44745 -1.721908,-2.01612 l 0.658987,-0.62301 c 0.396523,-0.37394 0.703791,-0.65087 0.950738,-0.81562 -0.10513,0.0148 -0.217313,0.0222 -0.322088,0.0222 -0.104775,0 -0.20955,-0.007 -0.321734,-0.0222 -0.801158,1.01953 -1.392766,1.49084 -1.527175,1.49084 -0.08255,0 -0.119591,-0.0448 -0.119591,-0.12735 v -0.24695 c 0,-0.9144 0.0071,-1.95897 0.03704,-3.14395 -0.09701,0.0148 -0.202141,0.03 -0.306916,0.03 -0.09701,0 -0.201787,-0.0152 -0.306917,-0.03 0.02999,0.92427 0.0374,1.83409 0.0374,2.73085 0,0.70485 -0.0074,1.61854 -0.0374,2.75131 0.10513,-0.024 0.209905,-0.0388 0.306917,-0.0388 0.104775,0 0.209904,0.0148 0.306916,0.0388 -0.03704,-0.57009 -0.03704,-1.01177 -0.03704,-1.30492 v -0.41169 c 0,-0.0677 0,-0.0977 0.06703,-0.0977 0.112184,0 0.643819,0.59161 1.549752,1.81434 0.119592,-0.024 0.246944,-0.0314 0.374298,-0.0314 0.134409,0 0.276577,0.007 0.411692,0.0314 m -4.147257,0 c -0.02222,-0.60008 -0.03739,-1.20791 -0.03739,-1.81434 0,-0.56127 0.01516,-1.10172 0.03739,-1.64041 -0.08996,0.0222 -0.194381,0.03 -0.299156,0.03 -0.09772,0 -0.195085,-0.008 -0.29986,-0.03 0.02294,0.53163 0.03775,1.07914 0.03775,1.64041 0,0.60643 -0.01482,1.21426 -0.03775,1.81434 0.104775,-0.024 0.202141,-0.0388 0.29986,-0.0388 0.104775,0 0.209198,0.0148 0.299156,0.0388 m 0.07479,-4.72511 c 0,-0.20919 -0.164748,-0.36688 -0.373946,-0.36688 -0.202494,0 -0.37465,0.15769 -0.37465,0.36688 0,0.2025 0.172156,0.36689 0.37465,0.36689 0.209198,0 0.373946,-0.16439 0.373946,-0.36689 m -1.826331,4.72511 c -0.01516,-0.4131 -0.02257,-0.79481 -0.02257,-1.15429 0,-0.34396 0.01482,-0.70379 0.01482,-1.06292 0,-0.87595 -0.389115,-1.30986 -1.167697,-1.30986 -0.493887,0 -0.868185,0.23177 -1.145468,0.71084 0,-0.0896 -0.0074,-0.17921 -0.0074,-0.26916 0,-0.11995 0.0074,-0.23954 0.01516,-0.36689 -0.08996,0.0222 -0.187325,0.03 -0.2921,0.03 -0.0896,0 -0.194733,-0.008 -0.299508,-0.03 0.02999,0.51682 0.02999,1.06292 0.02999,1.66193 v 0.51647 c 0,0.44132 0,0.86078 -0.02999,1.27388 0.104775,-0.024 0.202141,-0.0388 0.299508,-0.0388 0.104775,0 0.209905,0.0148 0.306917,0.0388 -0.01482,-0.37571 -0.01482,-0.82479 -0.01482,-1.37125 v -0.32914 c 0,-0.48648 0.01482,-0.85337 0.246946,-1.13806 0.164746,-0.21696 0.396875,-0.31468 0.681212,-0.31468 0.553863,0 0.830792,0.35948 0.830792,1.07809 0,0.86854 -0.01482,1.56492 -0.0448,2.07504 0.104775,-0.024 0.202142,-0.0388 0.299508,-0.0388 0.09701,0 0.202142,0.0148 0.299509,0.0388 m -3.990269,0 c -0.01482,-0.48789 -0.02999,-0.86219 -0.02999,-1.1243 0,-0.43392 0.02257,-0.80857 0.02257,-1.12254 0,-0.84632 -0.389114,-1.27282 -1.167695,-1.27282 -0.486479,0 -0.823383,0.20214 -1.13806,0.66639 0,-0.35207 -0.0074,-0.68897 -0.0074,-1.00224 0,-0.47025 0.0074,-1.01529 0.02257,-1.62666 -0.08996,0.0148 -0.194734,0.03 -0.299509,0.03 -0.0896,0 -0.194733,-0.0152 -0.306562,-0.03 0.02222,0.85831 0.03704,1.76813 0.03704,2.73368 0,0.5087 -0.0074,1.42205 -0.03704,2.74849 0.09701,-0.024 0.194379,-0.0388 0.291746,-0.0388 0.104775,0 0.209198,0.0148 0.306916,0.0388 -0.0078,-0.39793 -0.01516,-0.68263 -0.01516,-0.85478 v -0.52388 c 0,-0.61418 0.01516,-1.04069 0.142168,-1.29504 0.1651,-0.31468 0.44168,-0.47943 0.786342,-0.47943 0.62089,0 0.830791,0.38206 0.830791,1.20544 0,0.48648 -0.01516,1.13806 -0.03739,1.94769 0.104774,-0.024 0.202141,-0.0388 0.299155,-0.0388 0.104775,0 0.209902,0.0148 0.299509,0.0388 m -3.570454,-3.22792 c -0.381706,-0.19438 -0.778581,-0.29174 -1.190273,-0.29174 -1.093258,0 -1.819275,0.7112 -1.819275,1.79669 0,1.09291 0.696032,1.79776 1.714148,1.79776 0.516819,0 0.92075,-0.1136 1.250244,-0.36795 -0.0074,-0.0448 -0.0074,-0.0977 -0.0074,-0.14993 0,-0.0748 0.0074,-0.16475 0.01482,-0.26952 -0.351718,0.35948 -0.696028,0.53163 -1.10772,0.53163 -0.756357,0 -1.272823,-0.58384 -1.272823,-1.5494 0,-0.99589 0.456848,-1.55716 1.228018,-1.55716 0.456497,0 0.785638,0.22437 0.99554,0.68863 0.0448,-0.23213 0.112535,-0.44909 0.194733,-0.62901 m -4.132439,1.19804 h -1.923696 c 0.02999,-0.78635 0.463902,-1.27247 1.010354,-1.27247 0.561623,0 0.913342,0.4191 0.913342,1.15252 z m 0.591608,0.097 c 0,-1.02553 -0.546452,-1.59421 -1.474962,-1.59421 -1.018117,0 -1.684163,0.71861 -1.684163,1.80411 0,1.05516 0.696031,1.78999 1.728965,1.78999 0.44944,0 0.861131,-0.14322 1.24319,-0.42015 v -0.09 c 0,-0.0822 0.0071,-0.17957 0.01482,-0.27693 -0.344665,0.3369 -0.704146,0.49388 -1.130654,0.49388 -0.793396,0 -1.227667,-0.53128 -1.227667,-1.52682 v -0.0222 h 2.522715 c 0,-0.0529 0.0078,-0.10513 0.0078,-0.15769 m -3.293877,1.75966 -0.05256,-0.16475 c -0.20955,0.10477 -0.381704,0.15698 -0.509058,0.15698 -0.463902,0 -0.613479,-0.28433 -0.613479,-0.92956 0,-0.66605 0.02963,-1.22908 0.02963,-1.69299 0,-0.0374 0.0074,-0.16474 0.01516,-0.36653 0.07479,-0.008 0.164748,-0.008 0.26176,-0.008 0.186973,0 0.411692,0.008 0.673807,0.0226 v -0.06 c 0,-0.0896 0.0078,-0.17251 0.02257,-0.23954 -0.366536,0.03 -0.681213,0.0374 -0.950736,0.0374 v -0.47766 c 0,-0.0751 0.0074,-0.26211 0.02257,-0.57538 -0.172508,0.0822 -0.366887,0.14217 -0.591608,0.17992 0.0074,0.19332 0.01516,0.39546 0.01516,0.61101 v 0.24694 c -0.149932,0 -0.31468,-0.007 -0.464257,-0.0222 0,0.03 0.0074,0.067 0.0074,0.11219 0,0.06 -0.0074,0.12735 -0.01482,0.19473 0.127,-0.0152 0.254352,-0.0222 0.381706,-0.0222 h 0.07479 v 0.24694 c 0,0.95921 -0.03739,1.6256 -0.03739,1.99214 0,0.69003 0.254352,1.00577 0.935918,1.00577 0.276932,0 0.553863,-0.091 0.793398,-0.248 m -2.8448,0.17321 c -0.02222,-0.60008 -0.03739,-1.20791 -0.03739,-1.81434 0,-0.56127 0.01516,-1.10172 0.03739,-1.64041 -0.08961,0.0222 -0.194381,0.03 -0.299156,0.03 -0.09772,0 -0.194733,-0.008 -0.29986,-0.03 0.02294,0.53163 0.03775,1.07914 0.03775,1.64041 0,0.60643 -0.01482,1.21426 -0.03775,1.81434 0.105127,-0.024 0.202141,-0.0388 0.29986,-0.0388 0.104775,0 0.20955,0.0148 0.299156,0.0388 m 0.07479,-4.72511 c 0,-0.20919 -0.164396,-0.36688 -0.373946,-0.36688 -0.202142,0 -0.37465,0.15769 -0.37465,0.36688 0,0.2025 0.172508,0.36689 0.37465,0.36689 0.20955,0 0.373946,-0.16439 0.373946,-0.36689 m -1.826297,4.72511 c -0.02257,-0.63641 -0.02998,-1.7145 -0.02998,-3.23144 0,-0.82974 0,-1.57833 0.02998,-2.25073 -0.09737,0.007 -0.20955,0.0148 -0.314325,0.0148 -0.08996,0 -0.194733,-0.007 -0.2921,-0.0148 0.02998,0.40393 0.02998,0.87454 0.02998,1.42875 v 1.92123 c 0,0.93416 0,1.6443 -0.02998,2.13219 0.09737,-0.0162 0.194733,-0.024 0.2921,-0.024 0.104775,0 0.20955,0.008 0.314325,0.024 m -2.036233,-1.68557 c 0,1.00294 -0.389115,1.52717 -1.108075,1.52717 -0.726017,0 -1.115484,-0.53939 -1.115484,-1.57974 0,-1.03293 0.389467,-1.56421 1.108075,-1.56421 0.726369,0 1.115484,0.55386 1.115484,1.61678 m 0.62865,-0.0448 c 0,-1.06327 -0.718609,-1.78929 -1.736725,-1.78929 -0.987777,0 -1.736371,0.72602 -1.736371,1.78929 0,1.07033 0.726017,1.7974 1.736371,1.7974 0.995891,0 1.736725,-0.70485 1.736725,-1.7974 m -4.236861,-1.95404 c 0,0.76377 -0.524227,1.14547 -1.571977,1.14547 -0.112538,0 -0.217313,-0.008 -0.329497,-0.0148 v -0.65934 c 0,-0.53093 0.01516,-1.03258 0.0374,-1.50424 0.157337,-0.0148 0.307268,-0.0226 0.456493,-0.0226 0.965907,0 1.407584,0.26952 1.407584,1.05551 m 0.688624,-0.0596 c 0,-0.80857 -0.576441,-1.28799 -1.63936,-1.28799 -0.449087,0 -0.853371,0.0526 -1.220259,0.0526 -0.104775,0 -0.216959,-0.007 -0.359128,-0.0226 0.02999,0.77858 0.0448,1.60972 0.0448,2.50789 0,0.85337 -0.01482,1.68452 -0.0448,2.49414 0.127,-0.024 0.246944,-0.0388 0.366889,-0.0388 0.104775,0 0.20179,0.0148 0.306565,0.0296 -0.02963,-0.52352 -0.0374,-0.93557 -0.0374,-1.23507 v -1.04775 c 0.232481,0.0152 0.426508,0.0152 0.554215,0.0152 1.325033,0 2.028474,-0.5394 2.028474,-1.46721"
         inkscape:connector-curvature="0" />
    </g>
  </g>
</svg>
